# xmcd CD database file
#
# Track frame offsets:
#	150
#	18648
#	38891
#	55527
#	77672
#	95058
#	118007
#	145067
#	161726
#	177950
#	212503
#
# Disc length: 3109 seconds
#
# Revision: 5
# Processed by: cddbd v1.5.1PL0 Copyright (c) Steve Scherf et al.
# Submitted via: CDex 1.50beta9
#
DISCID=8f0c230b
DTITLE=Sonata Arctica - Ecliptica
DYEAR=2000
DGENRE=Heavy Metal
TTITLE0=Blank File
TTITLE1=Mary Lou
TTITLE2=8th Commandment
TTITLE3=Replica
TTITLE4=Kingdom For A Heart
TTITLE5=FullMoon
TTITLE6=Letter To Dana
TTITLE7=UnOpened
TTITLE8=Picturing The Past
TTITLE9=Destruction Preventer
TTITLE10=My Land
EXTD=YEAR: 2000
EXTT0=
EXTT1=
EXTT2=
EXTT3=
EXTT4=
EXTT5=
EXTT6=
EXTT7=
EXTT8=
EXTT9=
EXTT10=
PLAYORDER=
